<?xml version="1.0" encoding="UTF-8" standalone="no"?>
<svg
   xmlns:dc="http://purl.org/dc/elements/1.1/"
   xmlns:cc="http://creativecommons.org/ns#"
   xmlns:rdf="http://www.w3.org/1999/02/22-rdf-syntax-ns#"
   xmlns:svg="http://www.w3.org/2000/svg"
   xmlns="http://www.w3.org/2000/svg"
   xmlns:sodipodi="http://sodipodi.sourceforge.net/DTD/sodipodi-0.dtd"
   xmlns:inkscape="http://www.inkscape.org/namespaces/inkscape"
   width="210mm"
   height="297mm"
   viewBox="0 0 210 297"
   version="1.1"
   id="svg8"
   inkscape:version="1.0.2 (e86c870879, 2021-01-15)"
   sodipodi:docname="logo.svg">
  <defs
     id="defs2" />
  <sodipodi:namedview
     id="base"
     pagecolor="#ffffff"
     bordercolor="#666666"
     borderopacity="1.0"
     inkscape:pageopacity="0.0"
     inkscape:pageshadow="2"
     inkscape:zoom="1.4142136"
     inkscape:cx="294.42134"
     inkscape:cy="545.2034"
     inkscape:document-units="mm"
     inkscape:current-layer="layer1"
     inkscape:document-rotation="0"
     showgrid="false"
     inkscape:window-width="1918"
     inkscape:window-height="1078"
     inkscape:window-x="0"
     inkscape:window-y="0"
     inkscape:window-maximized="1" />
  <metadata
     id="metadata5">
    <rdf:RDF>
      <cc:Work
         rdf:about="">
        <dc:format>image/svg+xml</dc:format>
        <dc:type
           rdf:resource="http://purl.org/dc/dcmitype/StillImage" />
        <dc:title />
      </cc:Work>
    </rdf:RDF>
  </metadata>
  <g
     inkscape:label="Layer 1"
     inkscape:groupmode="layer"
     id="layer1">
    <g
       id="g101"
       transform="translate(2.7054182,28.902396)">
      <path
         style="fill:#fefefe;stroke-width:0.282222"
         d="m 59.034025,194.28557 c 0.725768,-0.32957 1.892644,-1.12746 2.593061,-1.77308 l 1.273482,-1.17386 0.415632,0.79593 c 0.550257,1.05373 1.827786,2.24028 2.812731,2.61242 0.436964,0.16509 1.6563,0.30017 2.709632,0.30017 1.481142,0 2.204706,-0.15396 3.192884,-0.67938 l 1.277736,-0.67937 0.437337,0.43734 c 0.382426,0.38242 1.10433,0.40571 5.749299,0.18549 l 5.311961,-0.25185 0.141111,-5.82728 c 0.125846,-5.19691 0.19873,-5.89086 0.673746,-6.41504 0.59692,-0.65869 2.0773,-1.03122 2.970906,-0.7476 1.128115,0.35805 1.287929,1.16019 1.435348,7.20436 l 0.141111,5.78556 h 5.486025 5.486023 l 0.70967,-2.18723 0.70967,-2.18722 h 3.70185 3.70185 l 0.68579,2.18722 0.68579,2.18723 h 5.36222 5.36222 v -8.89 -8.89 H 119.38 116.69889 l -0.14111,6.85318 -0.14111,6.85318 -3.38667,-9.81651 -3.38667,-9.81652 -3.13309,-0.0794 c -2.29256,-0.0581 -3.20773,0.0176 -3.41129,0.28223 -0.15301,0.19889 -1.85461,4.83404 -3.781347,10.30034 l -3.503157,9.93871 -0.141639,-5.56427 c -0.153322,-6.02322 -0.261639,-6.48523 -1.879275,-8.01576 -1.131536,-1.0706 -2.085179,-1.35851 -4.499813,-1.35851 -1.54237,0 -2.402741,0.14959 -3.20009,0.55636 -0.942066,0.48061 -1.112788,0.49842 -1.253845,0.13083 -0.133167,-0.34702 -0.671805,-0.41061 -2.919868,-0.34469 l -2.75658,0.0808 -0.147953,7.76111 -0.147952,7.76111 -0.06371,-5.83774 c -0.03557,-3.25852 -0.196054,-6.18876 -0.363246,-6.63222 -0.47831,-1.26868 -1.944226,-2.57891 -3.441892,-3.07636 -1.045991,-0.34742 -2.122412,-0.43218 -4.395774,-0.34611 -3.09718,0.11725 -4.24285,0.46334 -5.582937,1.68653 l -0.596801,0.54474 -0.19389,-1.21275 c -0.412722,-2.58152 -2.890444,-5.37039 -5.707693,-6.42446 -2.163456,-0.80945 -6.513883,-0.80657 -8.685022,0.006 -1.803057,0.67461 -4.049469,2.58491 -5.052595,4.29661 -2.028348,3.46112 -2.353968,9.55902 -0.740688,13.8709 0.849877,2.2715 3.246464,4.75428 5.486824,5.68416 l 1.693333,0.70283 3.245556,-0.0893 c 2.571402,-0.0708 3.519652,-0.21381 4.565133,-0.68858 z m 10.139821,-4.57124 c -0.732494,-0.73249 -0.741449,-1.01068 -0.05465,-1.69748 0.521231,-0.52123 3.587392,-1.35496 3.88576,-1.05659 0.247159,0.24716 -0.464202,2.06402 -0.996874,2.54608 -0.871175,0.78841 -2.159293,0.88293 -2.834236,0.20799 z m -17.324372,-0.66086 c -0.746954,-0.4329 -1.297426,-1.08729 -1.834444,-2.18074 -0.672358,-1.36903 -0.766889,-1.89383 -0.764338,-4.24335 0.0025,-2.29568 0.10886,-2.90793 0.739892,-4.25888 0.893617,-1.91311 2.093358,-2.8402 3.900153,-3.01381 2.248642,-0.21606 3.665228,0.75936 4.516456,3.10991 l 0.281062,0.77611 h 2.552361 2.552361 l -0.209981,0.77611 c -0.115489,0.42686 -0.21316,1.22061 -0.217043,1.76389 l -0.0071,0.98778 2.602388,0.081 2.602388,0.081 0.40533,-0.97008 c 0.298473,-0.71436 0.635427,-1.02063 1.278165,-1.1618 1.103455,-0.24236 2.472481,0.0486 2.671716,0.56778 0.263423,0.68646 -0.580551,1.18774 -2.564316,1.52308 -2.776381,0.46932 -4.689551,1.0598 -5.500444,1.69765 -0.578104,0.45474 -1.228132,0.57392 -3.490727,0.64004 l -2.780338,0.0813 -0.175423,0.84666 c -0.304343,1.46889 -1.058438,2.58924 -2.063959,3.06639 -1.361006,0.64584 -3.2069,0.57599 -4.494197,-0.17007 z m 52.572746,-4.67101 c 0,-0.12237 0.41553,-1.46188 0.92338,-2.97671 l 0.92338,-2.75423 0.91107,2.77953 c 0.50108,1.52874 0.91106,2.86825 0.91106,2.9767 0,0.10845 -0.8255,0.19718 -1.83444,0.19718 -1.00895,0 -1.83445,-0.10011 -1.83445,-0.22247 z m 57.60848,9.74404 c 2.89151,-1.42 5.16411,-4.501 6.03048,-8.17561 1.44406,-6.12486 -1.19147,-12.72446 -6.03048,-15.10086 l -1.58737,-0.77954 h -3.66888 c -4.35432,0 -5.43032,0.36824 -7.89946,2.70346 -1.49865,1.41736 -3.18094,4.19229 -3.30736,5.4555 -0.0325,0.32446 -0.12773,-1.31507 -0.21167,-3.64341 l -0.15263,-4.23333 H 142.24 139.27667 v 11.85333 11.85334 h 2.96333 2.96333 l 0.15366,-3.81 c 0.0845,-2.0955 0.17977,-3.60804 0.21167,-3.36119 0.0319,0.24684 0.43365,1.19934 0.89277,2.11667 1.12147,2.2407 3.4254,4.46986 5.53519,5.35554 l 1.67338,0.70248 3.38667,-0.0784 c 3.03831,-0.0704 3.54994,-0.1586 4.97403,-0.85796 z m -7.65153,-5.08358 c -0.87472,-0.46256 -1.45904,-1.07391 -2.09051,-2.18722 l -0.87644,-1.54521 v -2.82222 -2.82223 l 0.87644,-1.54521 c 1.44424,-2.54626 4.22172,-3.52963 6.59482,-2.3349 3.62608,1.82553 4.5514,8.5323 1.65963,12.02906 -1.59899,1.93351 -3.94565,2.40099 -6.16394,1.22793 z m -25.68584,-0.34577 c 0.14405,-5.47379 0.3167,-6.35144 1.33272,-6.77495 0.27595,-0.11502 1.26373,-0.28871 2.19506,-0.38598 l 1.69334,-0.17684 v -2.68111 -2.68112 l -1.51434,-0.0864 c -1.234,-0.0704 -1.71192,0.0443 -2.58161,0.61984 l -1.06726,0.70628 -0.14639,-0.55979 -0.14639,-0.5598 -2.77534,0.0811 -2.77534,0.0811 -0.0748,8.60486 c -0.0411,4.73267 -0.0116,8.76955 0.0656,8.97083 0.10483,0.27319 0.83933,0.34548 2.89701,0.28514 l 2.75658,-0.0808 z m 10.01889,2.54 v -2.82222 H 135.89 133.06778 l -0.0822,2.51767 c -0.0452,1.38471 -0.0157,2.69109 0.0656,2.90305 0.11407,0.29727 0.77823,0.36691 2.90446,0.30456 l 2.75658,-0.0808 z M 122.06111,172.7516 v -2.39889 H 119.38 116.69889 l -0.0838,2.09026 c -0.0461,1.14963 -0.0165,2.26568 0.0658,2.48009 0.11562,0.30129 0.74374,0.3714 2.76493,0.30864 l 2.61532,-0.0812 z M 106.708,168.11367 c 2.3351,-0.49497 5.29652,-1.92375 6.88442,-3.32147 0.66964,-0.58944 1.29581,-1.07171 1.3915,-1.07171 0.0957,0 0.65171,0.30158 1.23561,0.67019 5.23218,3.30293 13.09077,3.14411 18.68269,-0.37758 l 1.27,-0.79982 4.09223,-0.13153 c 3.36027,-0.108 4.47922,-0.25786 6.25592,-0.83784 3.44021,-1.12301 5.74596,-2.56473 8.45064,-5.28395 2.01407,-2.0249 2.65263,-2.89908 3.73151,-5.10843 2.62393,-5.37333 2.84816,-10.92591 0.65997,-16.3433 -2.14758,-5.31687 -6.62728,-9.71916 -11.83082,-11.62637 l -1.62278,-0.59478 v -1.12089 c 0,-3.41452 -2.01641,-7.67622 -5.04466,-10.66193 -3.83238,-3.77854 -8.78323,-5.51761 -13.79775,-4.84667 -1.33622,0.17878 -2.48475,0.26981 -2.55228,0.20229 -0.0675,-0.0675 0.12644,-0.60477 0.43103,-1.19386 0.84496,-1.63422 2.80719,-2.49484 7.27588,-3.19117 6.42855,-1.00172 8.9434,-1.69509 12.13556,-3.345909 2.35566,-1.218223 5.48342,-4.220546 6.88335,-6.607288 1.35447,-2.309229 2.84771,-6.797254 2.85079,-8.568232 0.004,-2.414431 -1.16226,-3.184077 -4.84915,-3.199531 -0.88337,-0.0037 -1.66577,-0.103243 -1.73867,-0.2212 -0.0729,-0.117958 0.35293,-1.021645 0.9463,-2.008198 2.42834,-4.037425 3.74312,-10.451783 3.11297,-15.187105 -0.3741,-2.811163 -1.13875,-5.315857 -2.15993,-7.075093 -0.6184,-1.065334 -0.78394,-1.180808 -1.46045,-1.018726 -1.18321,0.283482 -1.92995,0.725483 -5.41966,3.207941 -4.16965,2.966149 -6.46097,4.32141 -8.77423,5.189755 -2.13575,0.801706 -4.77093,1.503375 -6.13561,1.633725 l -0.93984,0.08977 -0.64181,-1.833801 c -2.6948,-7.699587 -8.62768,-13.113512 -16.10517,-14.69642 -2.66239,-0.5636 -7.2217,-0.440237 -9.95509,0.269358 -7.36349,1.911582 -12.922108,7.136072 -14.565844,13.690296 -0.237964,0.948854 -0.507049,2.201122 -0.597967,2.782818 -0.19313,1.235671 -0.596428,1.496946 -4.022685,2.606091 -2.456993,0.795376 -3.096251,1.350521 -4.601763,3.996252 -0.570758,1.003035 -0.61733,1.273754 -0.328267,1.908181 0.451039,0.989923 2.861327,2.506749 7.202715,4.532768 1.972061,0.920313 3.585565,1.824375 3.585565,2.009027 0,0.184653 0.52363,1.119869 1.163619,2.078262 2.804787,4.200201 9.348106,6.940725 17.956937,7.520869 l 2.89278,0.194943 v 0.674593 c 0,1.11349 1.34166,3.412831 2.85737,4.896978 l 1.42458,1.394915 -2.21153,-1.10216 c -8.74954,-4.3605 -18.532061,-4.40263 -27.047089,-0.116476 -6.287598,3.164947 -10.84517,7.735047 -14.203759,14.242807 l -1.036241,2.00787 -2.279435,0.76095 c -16.819094,5.61471 -23.169697,25.93974 -12.520631,40.07213 3.540495,4.69858 8.564945,8.08325 14.107089,9.50308 0.975592,0.24994 2.380415,0.90563 3.259151,1.52118 5.461617,3.82588 13.309574,4.0593 18.988861,0.5648 l 1.409071,-0.86701 1.383117,0.99368 c 4.160709,2.98917 9.238926,4.1356 13.921886,3.14293 z m 10.97867,-67.07204 -1.83445,-1.692228 1.69334,0.757618 c 1.80724,0.8086 2.57252,1.35879 2.9994,2.15642 0.21849,0.40825 0.1508,0.49467 -0.37892,0.48373 -0.38396,-0.008 -1.38723,-0.69807 -2.47937,-1.70554 z"
         id="path129"
         sodipodi:nodetypes="cscsssscsscsssscccccccccccccccccccssscsssssscccssssscsscsssccccssssscssssscccsscccsssssccssccsscssssssscsssscccccccssssccsssscccssssssscccssccccccsscsccccsssccccccsssccssscscsssssscsssssssscssssssssscsssssssssssscsscssscssssscssscsscs" />
      <path
         style="fill:#d1d1d1;stroke-width:0.282222"
         d="m 48.340722,137.61493 c 0.0021,-0.77611 0.05693,-1.06011 0.121798,-0.63112 0.06487,0.429 0.06314,1.064 -0.0039,1.41111 -0.06699,0.34712 -0.120064,-0.004 -0.117946,-0.77999 z m 27.00082,-35.48944 c 1.169517,-1.24607 1.422905,-1.47012 1.422905,-1.25821 0,0.0453 -0.60325,0.64855 -1.340556,1.34056 l -1.340555,1.2582 z"
         id="path127"
         sodipodi:nodetypes="sssssssscs" />
      <path
         style="fill:#afafaf;stroke-width:0.282222"
         d="m 55.858641,155.88882 -0.684194,-0.77611 0.776111,0.68419 c 0.426861,0.37631 0.776111,0.72556 0.776111,0.77612 0,0.22134 -0.228543,0.0412 -0.868028,-0.6842 z"
         id="path125"
         sodipodi:nodetypes="scsss" />
      <path
         style="fill:#fdca00;stroke-width:0.282222"
         d="m 49.812225,193.79706 c -4.430773,-1.84006 -6.873747,-7.23514 -6.082969,-13.43366 0.832665,-6.52685 4.374487,-9.86958 10.457413,-9.86958 1.831151,0 2.932346,0.15472 4.033472,0.5667 2.857839,1.06926 5.095198,3.6517 5.458195,6.30004 l 0.180611,1.31771 h -2.406656 -2.406653 l -0.184463,-0.73496 c -0.535638,-2.13416 -2.440573,-3.34351 -4.977522,-3.16001 -2.112419,0.1528 -3.445072,1.13937 -4.458075,3.30033 -0.653271,1.39358 -0.741819,1.93604 -0.742017,4.54575 l -2.25e-4,2.96333 0.797052,1.62315 c 0.596084,1.2139 1.100449,1.80096 2.000352,2.32834 1.503666,0.8812 3.787447,0.96033 5.250332,0.18191 1.059505,-0.56378 2.241208,-2.32803 2.248732,-3.35729 l 0.0046,-0.635 h 2.531144 2.531141 l -0.185866,0.49389 c -0.102227,0.27164 0.255067,0.0292 0.793984,-0.53867 1.051727,-1.1083 2.483265,-1.64154 6.006344,-2.2373 2.612675,-0.44182 3.546497,-1.37658 2.628869,-2.63152 -0.458679,-0.62728 -2.571127,-0.89754 -3.677271,-0.47046 -0.475508,0.18359 -0.931255,0.65286 -1.120208,1.15345 l -0.318553,0.84394 H 65.94672 63.719408 l 0.194894,-1.05833 c 0.327347,-1.7776 1.314176,-3.24647 2.693692,-4.00952 1.041403,-0.57603 1.750585,-0.72021 3.990877,-0.81139 4.115959,-0.16752 6.397243,0.81878 7.27651,3.14595 0.176137,0.46619 0.300177,3.16186 0.300177,6.52361 v 5.72912 l 0.564444,0.71757 c 0.976085,1.2409 0.781553,1.36203 -2.046111,1.27414 -2.342309,-0.0728 -2.637383,-0.14222 -2.871642,-0.67549 l -0.261087,-0.59436 -1.2436,0.87658 -1.243604,0.87657 h -2.35517 c -1.947601,0 -2.493064,-0.10217 -3.151979,-0.5904 -1.339698,-0.99265 -2.066781,-2.31356 -2.067029,-3.75523 l -2.23e-4,-1.29882 -0.588171,1.18825 c -0.729627,1.474 -2.457041,3.06295 -4.174617,3.83996 -0.993188,0.44931 -2.011804,0.61221 -4.267877,0.68255 -2.640201,0.0823 -3.14798,0.0157 -4.656667,-0.61085 z m 22.019293,-3.42832 c 1.028715,-0.48815 1.828484,-2.03249 1.828484,-3.53076 0,-0.68447 -0.100793,-0.83126 -0.493889,-0.71928 -0.271638,0.0774 -1.242788,0.28932 -2.158108,0.47096 -2.735224,0.54282 -3.742134,2.08902 -2.299718,3.53143 0.801762,0.80177 1.790335,0.88015 3.123231,0.24765 z m 80.448762,3.42841 c -5.04467,-2.11964 -7.71646,-8.45876 -6.22731,-14.77499 0.22988,-0.97503 0.68428,-2.29482 1.00979,-2.93287 0.90025,-1.76462 2.96961,-3.80654 4.73765,-4.67481 l 1.58737,-0.77955 h 3.38667 3.38666 l 1.59216,0.78189 c 3.12469,1.53449 5.32624,4.92444 5.94206,9.14957 0.80526,5.52488 -1.86837,11.18374 -6.21464,13.15357 -1.02855,0.46616 -2.00425,0.61809 -4.42402,0.68888 -2.79014,0.0816 -3.27372,0.0197 -4.77639,-0.61169 z m 6.70758,-3.93438 c 1.35079,-0.5644 2.95422,-2.58813 3.47791,-4.38955 0.59786,-2.05658 0.38035,-5.46125 -0.45977,-7.19671 -0.78775,-1.62727 -2.52294,-3.18345 -3.82124,-3.42701 -2.81563,-0.52822 -5.14009,0.55233 -6.48051,3.01252 -0.68726,1.2614 -0.84878,1.93228 -0.9439,3.92069 -0.13264,2.77288 0.17199,4.15308 1.31416,5.9541 1.39947,2.20674 4.46433,3.14922 6.91335,2.12596 z m -79.401191,-4.69339 v -8.46667 h 2.398889 2.398889 v 0.89586 0.89586 l 0.635,-0.58062 c 1.179336,-1.07836 2.373929,-1.49332 4.298938,-1.49332 2.21532,0 3.436248,0.45623 4.452281,1.66372 1.169419,1.38977 1.334962,2.53816 1.33665,9.27239 l 0.0016,6.27944 H 92.851138 90.59336 l -0.0017,-5.15055 c -0.0017,-5.64004 -0.234888,-7.03931 -1.287955,-7.72931 -1.02498,-0.67159 -3.079152,-0.37733 -4.035354,0.57806 l -0.742894,0.74226 -0.0867,5.77977 -0.0867,5.77977 H 81.969299 79.58655 v -8.46666 z m 16.382192,6.985 c 0.307191,-0.81492 2.130781,-5.92667 4.052429,-11.35945 l 3.49389,-9.87778 2.80995,-0.0799 2.80995,-0.08 3.85786,11.22773 c 2.12182,6.17526 3.90265,11.43626 3.89968,11.55268 -0.003,0.11641 -1.18171,0.0984 -2.56171,0.0984 h -2.50909 l -0.67484,-2.18722 -0.67483,-2.18722 h -4.2071 -4.2071 l -0.70967,2.18722 -0.70966,2.18722 h -2.614145 -2.614143 z m 12.968919,-7.20408 c 0,-0.12049 -0.60516,-2.02962 -1.3448,-4.24252 l -1.3448,-4.02345 -1.33631,4.04111 c -0.73497,2.22261 -1.33631,4.13175 -1.33631,4.24253 0,0.11077 1.2065,0.20141 2.68111,0.20141 1.47461,0 2.68111,-0.0986 2.68111,-0.21908 z m 8.18444,0.21908 v -8.46667 h 2.25778 2.25778 v 8.46667 8.46666 H 119.38 117.12222 Z m 6.20889,0 v -8.46667 h 2.39889 2.39889 l 0.009,1.19944 0.009,1.19945 0.56782,-0.76071 c 0.86586,-1.15999 2.29544,-1.9204 3.61038,-1.9204 h 1.16613 v 2.25778 2.25777 h -1.27906 c -0.70349,0 -1.72406,0.18593 -2.26794,0.41318 -1.58508,0.66229 -1.81522,1.59273 -1.81522,7.33887 v 4.94795 h -2.399 -2.39889 z m 10.16,6.06777 v -2.39888 h 2.39889 2.39889 v 2.39888 2.39889 H 135.89 133.49111 Z M 139.7,182.20604 v -11.43 h 2.54 2.54 v 11.43 11.43 h -2.54 -2.54 z m -22.57778,-9.45444 v -1.97556 h 2.25778 2.25778 v 1.97556 1.97555 H 119.38 117.12222 Z m 7.68359,-77.055655 c -1.02623,-0.139404 -2.64477,-0.660886 -3.84917,-1.240183 -2.1059,-1.012893 -5.24553,-3.332929 -5.24553,-3.876187 0,-0.16311 0.90993,-1.267384 2.02206,-2.453936 2.7066,-2.887718 4.46905,-5.314019 4.46905,-6.152357 0,-0.378037 -0.31172,-0.999064 -0.69272,-1.380064 -1.21605,-1.216045 -2.70964,-0.94838 -8.55405,1.532963 -4.32363,1.835672 -6.93519,2.264788 -10.9348,1.796751 -5.579414,-0.652904 -8.592762,-3.193096 -10.463153,-8.82022 -0.650802,-1.957954 -0.677167,-6.288337 -0.05079,-8.342466 0.771528,-2.530139 2.201299,-4.977362 3.901059,-6.67712 2.986735,-2.986735 6.590974,-4.082304 12.572754,-3.821696 3.80817,0.16591 5.47341,0.82082 7.57258,2.978159 2.67525,2.749383 3.70419,4.709407 5.39902,10.2846 l 0.74929,2.464813 3.00208,-0.149307 c 7.71419,-0.383664 9.93732,-1.073635 17.78873,-5.520904 l 2.08667,-1.181947 -0.14072,3.360155 c -0.1695,4.047653 -0.76474,5.710747 -2.67374,7.470396 -1.61675,1.490272 -3.54329,2.328517 -8.1131,3.530047 -6.47957,1.70366 -9.19133,3.232571 -9.19133,5.182148 0,1.219355 0.40898,1.899341 1.47341,2.449779 1.29007,0.667125 5.47526,0.394414 9.10992,-0.593609 3.87081,-1.052218 6.50743,-1.080897 8.64221,-0.09401 0.87265,0.403423 1.6795,0.883742 1.793,1.067379 0.45929,0.743159 -4.75739,5.770261 -7.07043,6.813476 -2.31582,1.044468 -10.17896,1.838356 -13.6023,1.373336 z M 103.91444,73.93905 c 1.9105,-0.404943 3.50418,-1.211563 3.91672,-1.982388 0.44691,-0.835053 0.16027,-2.578232 -0.59935,-3.645027 -0.89171,-1.252285 -3.71838,-3.264814 -4.89579,-3.485698 -1.37048,-0.257105 -2.838246,0.408449 -3.431726,1.556111 -0.603061,1.166193 -0.453127,4.71306 0.262712,6.214711 0.772945,1.621446 1.911554,1.943377 4.747434,1.342291 z"
         id="path123"
         sodipodi:nodetypes="ssssscccsssscsssscccscsssscccssssscssscccssscsssssssssssssscccsssssssssssssccccccssssccccsscccccccsscccssscccccccccssscsssscccccccccccccccsscccssscccccccccccccccccccccccccccccccsssssssssssssscsscssssssssssssssssss" />
      <path
         style="fill:#829ba7;stroke-width:0.282222"
         d="m 101.08531,161.45464 c -1.858916,-0.38362 -3.991364,-1.46037 -5.527536,-2.79103 -1.696957,-1.46994 -2.313091,-1.71646 -4.290083,-1.71646 -1.326433,0 -1.648127,0.11052 -2.259093,0.77612 -0.391826,0.42686 -0.919601,1.00151 -1.172831,1.27701 -1.285065,1.39807 -5.457181,2.62138 -7.811403,2.2904 -1.47489,-0.20736 -2.977797,-0.6658 -2.977331,-0.90819 0.0014,-0.77689 1.580329,-6.43572 2.355844,-8.44378 6.174159,-15.98693 19.350248,-27.21895 36.174793,-30.83736 3.98705,-0.85749 12.03907,-1.0755 16.50233,-0.4468 3.84933,0.54221 6.20676,1.13146 6.54642,1.63629 0.13555,0.20147 0.16643,1.46042 0.0686,2.79767 -0.26817,3.66667 0.48396,4.63813 4.12775,5.33147 5.69134,1.08295 10.10095,5.91706 10.81089,11.85162 0.57818,4.83309 -2.35478,10.32737 -6.89373,12.91398 -2.40517,1.37063 -4.35241,1.76157 -8.7742,1.76157 -4.2827,0 -4.70435,0.0973 -6.5585,1.51255 -2.15903,1.64802 -4.12457,2.22901 -7.08836,2.09522 -2.90628,-0.13119 -4.55012,-0.73217 -6.60223,-2.41372 l -1.30522,-0.84499 -1.96158,-0.44943 -2.02824,0.24149 -1.05477,0.84666 c -2.46601,1.97947 -3.12691,2.40825 -4.50906,2.92537 -1.81932,0.6807 -4.17749,0.9235 -5.77248,0.59434 z"
         id="path121"
         sodipodi:nodetypes="sssssscsssssssssssscccssss" />
      <path
         style="fill:#768d97;stroke-width:0.282222"
         d="m 76.058891,160.13683 c -0.465667,-0.25113 -1.418166,-0.93317 -2.116666,-1.51563 -1.061963,-0.88554 -1.656199,-1.13087 -3.627626,-1.49765 -3.727545,-0.69349 -6.712466,-2.29173 -9.515867,-5.09513 -3.702693,-3.70269 -5.470364,-7.99685 -5.479003,-13.31001 -0.0095,-5.81581 2.541719,-11.20486 7.091048,-14.97897 1.87069,-1.55192 5.47061,-3.31694 7.721448,-3.78579 3.011234,-0.62723 3.677471,-1.16501 4.621146,-3.7301 2.776787,-7.54784 8.598817,-12.8881 16.405075,-15.04756 2.821886,-0.78062 9.021954,-0.7222 11.934934,0.11246 5.98307,1.71435 11.50869,5.8994 14.45218,10.94594 1.58235,2.71291 2.2753,3.45328 3.55442,3.79772 0.88908,0.2394 1.26998,0.21378 1.88439,-0.12675 3.3465,-1.85474 5.80961,-2.277 8.58163,-1.47115 2.80496,0.81542 5.64374,3.44759 6.57992,6.10103 0.23717,0.6722 0.39221,1.2612 0.34452,1.30888 -0.0477,0.0477 -0.77928,-0.0976 -1.62578,-0.32286 -5.437,-1.44676 -15.58195,-1.64688 -21.28699,-0.41991 -12.8885,2.7719 -23.747533,10.04606 -30.953687,20.73501 -3.184212,4.72316 -5.80013,10.69738 -7.018153,16.02802 -0.345807,1.51341 -0.644835,2.74658 -0.664506,2.74036 -0.01967,-0.006 -0.416766,-0.21677 -0.882433,-0.46791 z"
         id="path119" />
      <path
         style="fill:#f96300;stroke-width:0.282222"
         d="m 81.613055,73.69037 c -0.670545,-0.304303 -1.141433,-0.679063 -1.046417,-0.832801 0.260183,-0.420982 2.392711,-0.924004 3.131343,-0.738618 0.883505,0.221745 1.196949,1.272202 0.526,1.762811 -0.684369,0.500425 -1.16395,0.465269 -2.610926,-0.191392 z"
         id="path117" />
      <path
         style="fill:#010101;stroke-width:0.282222"
         d="m 49.530003,194.36066 c -2.24036,-0.92988 -4.636947,-3.41266 -5.486824,-5.68416 -1.61328,-4.31188 -1.28766,-10.40978 0.740688,-13.8709 1.003126,-1.7117 3.249538,-3.622 5.052595,-4.29661 2.171139,-0.81233 6.521566,-0.81521 8.685022,-0.006 2.817249,1.05407 5.294971,3.84294 5.707693,6.42446 l 0.19389,1.21275 0.596801,-0.54474 c 1.340087,-1.22319 2.485757,-1.56928 5.582937,-1.68653 2.273362,-0.0861 3.349783,-0.001 4.395774,0.34611 1.497666,0.49745 2.963582,1.80768 3.441892,3.07636 0.167192,0.44346 0.32768,3.3737 0.363246,6.63222 l 0.06371,5.83774 0.147952,-7.76111 0.147953,-7.76111 2.75658,-0.0808 c 2.248063,-0.0659 2.786701,-0.002 2.919868,0.34469 0.141057,0.36759 0.311779,0.34978 1.253845,-0.13083 0.797349,-0.40677 1.65772,-0.55636 3.20009,-0.55636 2.414634,0 3.368277,0.28791 4.499813,1.35851 1.617636,1.53053 1.725953,1.99254 1.879275,8.01576 l 0.141639,5.56427 3.503157,-9.93871 c 1.926741,-5.4663 3.628341,-10.10145 3.781351,-10.30034 0.20356,-0.26462 1.11873,-0.34033 3.41129,-0.28223 l 3.05735,-0.0165 3.46241,9.91238 3.38667,9.81651 0.14111,-6.85318 0.14111,-6.85318 h 2.68111 2.68111 v 8.89 8.89 h -5.36222 -5.36222 l -0.68579,-2.18723 -0.68579,-2.18722 h -3.70185 -3.70185 l -0.70967,2.18722 -0.70967,2.18723 h -5.486027 -5.486025 l -0.141111,-5.78556 c -0.147419,-6.04417 -0.307233,-6.84631 -1.435348,-7.20436 -0.893606,-0.28362 -2.373986,0.0889 -2.970906,0.7476 -0.475016,0.52418 -0.5479,1.21813 -0.673746,6.41504 l -0.141111,5.82728 -5.311961,0.25185 c -4.644969,0.22022 -5.366873,0.19693 -5.749299,-0.18549 l -0.437337,-0.43734 -1.277736,0.67937 c -0.988178,0.52542 -1.711742,0.67938 -3.192884,0.67938 -1.053332,0 -2.272668,-0.13508 -2.709632,-0.30017 -0.984945,-0.37214 -2.262474,-1.55869 -2.812731,-2.61242 l -0.415632,-0.79593 -1.273482,1.17386 c -2.061061,1.89982 -3.393491,2.35803 -7.158194,2.46166 -1.863486,0.27799 -3.268614,0.0797 -4.938885,-0.61324 z m 9.206766,-0.6353 c 1.717576,-0.77701 3.44499,-2.36596 4.174617,-3.83996 l 0.588171,-1.18825 2.23e-4,1.29882 c 2.48e-4,1.44167 0.727331,2.76258 2.067029,3.75523 0.658915,0.48823 1.204378,0.5904 3.151979,0.5904 1.67497,-0.0257 2.35517,0 3.598774,-0.87657 l 1.2436,-0.87658 0.261087,0.59436 c 0.234259,0.53327 0.529333,0.60268 2.871642,0.67549 2.827664,0.0879 3.022196,-0.0332 2.046111,-1.27414 l -0.564444,-0.71757 v -5.72912 c 0,-3.36175 -0.12404,-6.05742 -0.300177,-6.52361 -0.879267,-2.32717 -3.160551,-3.31347 -7.27651,-3.14595 -2.240292,0.0912 -2.949474,0.23536 -3.990877,0.81139 -1.379516,0.76305 -2.366345,2.23192 -2.693692,4.00952 l -0.194894,1.05833 h 2.227312 2.227311 l 0.318553,-0.84394 c 0.188953,-0.50059 0.6447,-0.96986 1.120208,-1.15345 1.106144,-0.42708 3.218592,-0.15682 3.677271,0.47046 0.917628,1.25494 -0.0162,2.1897 -2.628869,2.63152 -3.523079,0.59576 -4.954617,1.129 -6.006344,2.2373 -0.538917,0.56791 -0.896211,0.81031 -0.793984,0.53867 l 0.185866,-0.49389 h -2.531141 -2.531144 l -0.0046,0.635 c -0.0075,1.02926 -1.189228,2.79351 -2.248733,3.35729 -1.462885,0.77842 -3.746666,0.69929 -5.250332,-0.18191 -0.899902,-0.52738 -1.404267,-1.11444 -2.000352,-2.32834 l -0.797066,-1.62315 2.25e-4,-2.96333 c 1.98e-4,-2.60971 0.08875,-3.15217 0.742017,-4.54575 1.013003,-2.16096 2.345656,-3.14753 4.458075,-3.30033 2.536949,-0.1835 4.441884,1.02585 4.977522,3.16001 l 0.184463,0.73496 h 2.406653 2.406656 l -0.180611,-1.31771 c -0.362997,-2.64834 -2.600356,-5.23078 -5.458195,-6.30004 -1.101126,-0.41198 -2.202321,-0.5667 -4.033472,-0.5667 -3.006296,0 -4.95152,0.62274 -6.747671,2.16018 -2.171578,1.85879 -3.248993,4.09782 -3.709742,7.7094 -0.790778,6.19852 1.652196,11.5936 6.082969,13.43366 1.508687,0.62655 2.016466,0.69316 4.656667,0.61085 2.256073,-0.0703 3.274689,-0.23324 4.267877,-0.68255 z m 9.971518,-3.60427 c -1.442416,-1.44241 -0.435506,-2.98861 2.299718,-3.53143 0.91532,-0.18164 1.88647,-0.39358 2.158108,-0.47096 0.648697,-0.18479 0.672491,1.13288 0.04861,2.69211 -0.763812,1.90895 -3.199559,2.61717 -4.506439,1.31028 z m 3.299795,-0.61475 c 0.532672,-0.48206 1.244033,-2.29892 0.996874,-2.54608 -0.298368,-0.29837 -3.364529,0.53536 -3.88576,1.05659 -0.686799,0.6868 -0.677844,0.96499 0.05465,1.69748 0.674943,0.67494 1.963061,0.58042 2.834236,-0.20799 z m 12.43078,-1.65007 0.0867,-5.77977 0.742893,-0.74226 c 0.956203,-0.95539 3.010374,-1.24965 4.035355,-0.57806 1.053067,0.69 1.286233,2.08927 1.287955,7.72931 l 0.0016,5.15055 h 2.257778 2.257778 l -0.0017,-6.27944 c -0.0017,-6.73423 -0.16723,-7.88262 -1.336649,-9.27239 -1.015915,-1.20749 -2.236843,-1.66372 -4.452163,-1.66372 -1.925009,0 -3.119602,0.41496 -4.298938,1.49332 l -0.635,0.58062 v -0.89586 -0.89586 h -2.398889 -2.398889 v 8.46667 8.46666 h 2.382748 2.382749 z m 16.909418,3.59255 0.70967,-2.18722 h 4.2071 4.2071 l 0.67483,2.18722 0.67484,2.18722 h 2.50909 c 1.38,0 2.47137,0.008 2.47434,-0.10844 0.003,-0.11642 -1.69049,-5.36737 -3.81231,-11.54263 l -3.85786,-11.22773 -2.80995,0.08 -2.80995,0.0799 -3.49389,9.87778 c -1.921648,5.43278 -3.745238,10.54453 -4.052429,11.35945 l -0.558529,1.48166 h 2.614143 2.614145 z m 2.22728,-6.48085 c 0,-0.11078 0.60134,-2.01992 1.33631,-4.24253 l 1.33631,-4.04111 1.3448,4.02345 c 0.73964,2.2129 1.3448,4.12203 1.3448,4.24252 0,0.12049 -1.2065,0.21908 -2.68111,0.21908 -1.47461,0 -2.68111,-0.0906 -2.68111,-0.20141 z m 4.51555,-0.56022 c 0,-0.10845 -0.40998,-1.44796 -0.91106,-2.9767 l -0.91107,-2.77953 -0.92338,2.75423 c -0.50785,1.51483 -0.92338,2.85434 -0.92338,2.97671 0,0.12236 0.8255,0.22247 1.83445,0.22247 1.00894,0 1.83444,-0.0887 1.83444,-0.19718 z m 13.54667,0.76163 v -8.46667 H 119.38 117.12222 v 8.46667 8.46666 h 2.25778 2.25778 z m -65.294109,4.05416 c 1.005521,-0.47715 1.759616,-1.5975 2.063959,-3.06639 l 0.175424,-0.84666 2.780337,-0.0813 c 2.262595,-0.0661 2.912624,-0.1853 3.490728,-0.64004 0.810892,-0.63785 2.724062,-1.22833 5.500443,-1.69765 1.983765,-0.33534 2.82774,-0.83662 2.564316,-1.52308 -0.199234,-0.5192 -1.568261,-0.81014 -2.671716,-0.56778 -0.642738,0.14117 -0.979692,0.44744 -1.278164,1.1618 l -0.405331,0.97008 -2.602388,-0.081 -2.602388,-0.081 0.0071,-0.98778 c 0.0039,-0.54328 0.101555,-1.33703 0.217043,-1.76389 l 0.209982,-0.77611 H 61.24061 58.688249 l -0.281062,-0.77611 c -0.851227,-2.35055 -2.267814,-3.32597 -4.516456,-3.10991 -1.806795,0.17361 -3.006536,1.1007 -3.900153,3.01381 -0.631032,1.35095 -0.737399,1.9632 -0.739891,4.25888 -0.0025,2.34952 0.09198,2.87432 0.764337,4.24335 1.253897,2.55313 3.861277,3.52165 6.328642,2.35081 z m 95.652949,5.13686 c -2.10979,-0.88568 -4.41372,-3.11484 -5.53519,-5.35554 -0.45912,-0.91733 -0.86087,-1.86983 -0.89277,-2.11667 -0.0319,-0.24685 -0.12715,1.26569 -0.21167,3.36119 l -0.15366,3.81 H 142.24 139.27667 v -11.85334 -11.85333 h 2.96333 2.96333 l 0.15263,4.23333 c 0.0839,2.32834 0.17919,3.96787 0.21167,3.64341 0.12642,-1.26321 1.80871,-4.03814 3.30736,-5.4555 2.46914,-2.33522 3.50328,-2.85542 7.85683,-2.77339 2.00086,-0.16536 3.55751,-0.006 5.29888,0.84944 4.83902,2.37639 7.47454,8.976 6.03048,15.10086 -0.86637,3.67461 -3.13897,6.75561 -6.03048,8.17561 -3.37648,1.06932 -6.42559,1.30512 -10.03408,0.23393 z m 9.48407,-0.64044 c 4.34627,-1.96983 7.0199,-7.62869 6.21464,-13.15357 -0.61582,-4.22513 -2.81737,-7.61508 -5.94206,-9.14957 -1.54707,-1.05506 -3.17961,-0.78189 -4.97882,-0.78189 l -2.9592,0.0717 -2.01484,0.70787 c -1.06754,0.37506 -3.8374,2.91019 -4.73765,4.67481 -0.32551,0.63805 -0.77991,1.95784 -1.00979,2.93287 -1.48915,6.31623 1.18264,12.65535 6.22731,14.77499 1.50267,0.63139 2.00851,0.67963 4.77639,0.61169 2.42008,-0.0594 3.39547,-0.22272 4.42402,-0.68888 z m -7.35311,-4.08271 c -1.37138,-0.67881 -2.66975,-2.44575 -3.17618,-4.32242 -0.16819,-0.62328 -0.25416,-2.21273 -0.19105,-3.53212 0.0951,-1.98841 0.25664,-2.65929 0.9439,-3.92069 1.34042,-2.46019 3.66488,-3.54074 6.48051,-3.01252 1.2983,0.24356 3.03349,1.79974 3.82124,3.42701 0.84012,1.73546 1.05763,5.14013 0.45977,7.19671 -0.52369,1.80142 -2.12712,3.82515 -3.47791,4.38955 -1.37975,0.57649 -3.43242,0.48125 -4.86028,-0.22552 z m 4.58204,-0.34059 c 3.5829,-1.49703 4.75632,-8.25899 2.05287,-11.82997 -2.39569,-3.16447 -6.48705,-2.84864 -8.47383,0.65414 -1.08489,1.37321 -1.02166,2.58292 -1.03709,4.27486 -0.005,1.8242 0.19535,2.97598 1.03709,4.46001 1.40173,2.47132 3.99178,3.45594 6.42096,2.44096 z M 144.78,182.20604 v -11.43 h -2.54 -2.54 v 11.43 11.43 h 2.54 2.54 z m -21.88137,11.64903 c -0.0772,-0.20128 -0.10678,-4.23816 -0.0656,-8.97083 l 0.0748,-8.60486 2.77534,-0.0811 2.77534,-0.0811 0.14639,0.5598 0.14639,0.55979 1.06726,-0.70628 c 0.86969,-0.57553 1.34761,-0.69028 2.58161,-0.61984 l 1.51434,0.0864 v 2.68112 2.68111 l -1.69334,0.17684 c -0.93133,0.0973 -1.91911,0.27096 -2.19506,0.38598 -1.01602,0.42351 -1.18867,1.30116 -1.33272,6.77495 l -0.14111,5.36223 -2.75658,0.0808 c -2.05768,0.0603 -2.79218,-0.012 -2.89701,-0.28514 z m 5.23026,-5.16698 c 0,-5.74614 0.23014,-6.67658 1.81522,-7.33887 0.54388,-0.22725 1.56445,-0.41318 2.26794,-0.41318 h 1.27906 v -2.25777 -2.25778 h -1.16613 c -1.31494,0 -2.74452,0.76041 -3.61039,1.9204 l -0.56782,0.76071 -0.009,-1.19945 -0.009,-1.19944 H 125.73 123.33111 v 8.46667 8.46666 h 2.39889 2.39889 z m 4.92229,5.14756 c -0.0813,-0.21196 -0.11088,-1.51834 -0.0656,-2.90305 l 0.0822,-2.51767 h 2.82222 2.82222 v 2.82222 2.82223 l -2.75658,0.0808 c -2.12623,0.0624 -2.79039,-0.007 -2.90446,-0.30456 z m 5.23771,-2.5985 v -2.39888 H 135.89 133.49111 v 2.39888 2.39889 h 2.39889 2.39889 z m -21.60803,-16.31409 c -0.0823,-0.21441 -0.11188,-1.33046 -0.0658,-2.48009 l 0.0838,-2.09026 h 2.68111 2.68111 v 2.39889 2.39889 l -2.61532,0.0812 c -2.02119,0.0628 -2.64931,-0.007 -2.76493,-0.30864 z m 4.95692,-2.17146 v -1.97556 H 119.38 117.12222 v 1.97556 1.97555 h 2.25778 2.25778 z m -22.515698,-5.08495 c -2.367678,-0.62034 -4.393181,-1.57996 -6.319429,-2.99396 l -1.352672,-0.99295 -1.663942,1.02705 c -5.453569,3.36613 -13.038317,3.14976 -18.480346,-0.5272 -1.075193,-0.72646 -2.598871,-1.42007 -3.995691,-1.8189 -8.203536,-2.34236 -14.638279,-8.49484 -17.321092,-16.56131 -2.218048,-6.66905 -1.759471,-13.17453 1.372692,-19.47334 3.098487,-6.23108 8.87244,-11.14479 15.408134,-13.11251 l 1.999733,-0.60207 0.628185,-1.51561 c 0.960608,-2.31764 3.701711,-6.28961 5.880023,-8.5204 3.366861,-3.447977 7.105281,-5.89727 11.385282,-7.459277 3.96343,-1.446474 5.911257,-1.77014 10.562598,-1.755168 3.604063,0.0116 4.637463,0.120232 6.952063,0.730831 5.23103,1.379959 9.02689,3.360395 13.0464,6.806764 1.89364,1.62363 2.70329,2.14411 3.33532,2.14411 h 0.83465 l -0.5532,-0.77611 c -0.78131,-1.09613 -1.41666,-1.58048 -2.8719,-2.18934 -4.54362,-1.901036 -8.44049,-5.772236 -9.15987,-9.099549 l -0.19831,-0.917222 h -1.70525 c -2.61504,0 -7.403687,-0.797721 -10.23719,-1.705373 -4.407464,-1.411836 -7.791913,-3.910394 -9.363916,-6.91288 l -0.762245,-1.455875 -3.548276,-1.665362 c -4.292975,-2.014883 -6.73466,-3.589824 -6.960511,-4.489687 -0.188406,-0.750672 0.893075,-2.798242 2.132722,-4.037889 0.422981,-0.42298 1.518909,-1.00236 2.435394,-1.287512 3.181974,-0.990021 4.347453,-1.602003 4.347453,-2.282808 0,-1.031183 1.082054,-4.938426 1.793485,-6.476195 3.525148,-7.61963 13.454414,-12.421131 22.345394,-10.805573 7.71216,1.401357 13.59088,6.456454 16.55719,14.237488 l 0.88761,2.328333 h 0.89413 c 1.24611,0 4.77214,-0.935146 6.93339,-1.838818 2.37915,-0.994786 4.49176,-2.273637 8.45002,-5.115143 2.93797,-2.109073 4.85816,-3.206038 5.61203,-3.206038 0.15048,0 0.65981,0.79375 1.13185,1.763888 3.26625,6.712853 2.30287,16.279837 -2.30061,22.846465 -0.18521,0.264193 -0.24479,0.572307 -0.1324,0.684696 0.11239,0.112389 1.31439,0.292058 2.67113,0.399263 1.35673,0.107205 2.69256,0.290282 2.96851,0.40684 1.31252,0.554386 1.38509,2.766212 0.21068,6.421583 -1.74178,5.421308 -4.80417,9.126606 -9.35954,11.324451 -3.07866,1.485377 -4.57901,1.899727 -10.37313,2.864777 -4.70107,0.783 -6.95398,1.4948 -7.89222,2.49351 -0.6895,0.73394 -1.25298,2.35575 -0.89528,2.57682 0.12747,0.0788 0.89745,0.017 1.71106,-0.13731 3.33802,-0.63304 7.0429,-0.0681 10.40562,1.58682 2.4803,1.22062 5.67645,4.22836 7.0127,6.59931 0.92069,1.6336 1.92884,4.89136 2.19495,7.09277 l 0.15802,1.30723 1.61048,0.5903 c 4.51119,1.65351 8.68302,5.46211 10.89779,9.94894 1.52518,3.08981 2.13097,5.64754 2.1378,9.02617 0.0169,8.37953 -5.53311,15.88526 -13.91149,18.81353 -1.70751,0.59679 -2.70022,0.73125 -6.2625,0.84827 l -4.23334,0.13907 -1.83344,1.10367 c -2.58584,1.55658 -4.97936,2.25037 -8.32656,2.41356 -3.8784,0.18909 -7.3923,-0.70313 -10.32796,-2.62238 l -0.7324,-0.47883 -1.60648,1.30849 c -2.06567,1.68251 -3.38708,2.34454 -6.02781,3.01993 -2.67357,0.68378 -5.53014,0.67599 -8.195488,-0.0223 z m 8.404588,-6.80746 c 0.85372,-0.3948 2.24129,-1.30795 3.0835,-2.02922 2.46994,-2.1153 4.796,-2.18667 7.36873,-0.22609 3.71827,2.83354 9.04122,3.05815 12.80643,0.54038 0.76255,-0.50991 1.71505,-1.14869 2.11667,-1.41951 0.60821,-0.41013 1.3923,-0.49265 4.6926,-0.49389 4.34186,-0.002 6.172,-0.33896 8.82412,-1.62648 2.35943,-1.14544 4.81993,-3.70638 6.14189,-6.39263 l 0.95147,-2.26929 0.37997,-1.9495 c 0.33097,-1.69807 -0.12903,-4.01834 -0.63321,-5.51157 -1.66356,-4.92697 -5.66706,-8.43379 -10.67277,-9.3487 -1.44575,-0.26424 -2.11093,-0.52182 -2.80671,-1.18018 -1.21431,-1.05526 -0.88514,-2.46342 -0.85182,-4.01884 l 0.0669,-3.12318 -0.87336,-1.83445 c -2.70735,-5.68671 -9.59933,-7.8714 -14.53262,-4.60671 -2.08053,1.37683 -3.87954,0.37451 -5.9018,-3.28821 -1.21085,-2.19308 -4.29556,-5.5497 -6.60532,-7.18758 -8.97972,-6.367595 -20.513762,-6.112565 -29.013053,0.64151 -3.277303,2.60435 -6.498536,7.28956 -7.814234,11.3656 -0.494304,1.53137 -1.336333,2.12401 -3.931045,2.76677 -7.518535,1.86247 -12.887093,7.20737 -14.763752,14.69867 -2.053235,8.19616 2.196239,17.51217 9.701524,21.26838 2.084682,1.04333 4.81709,1.87713 6.151484,1.87713 0.457847,0 1.513002,0.58705 2.778766,1.54599 1.178326,0.8927 2.651887,1.72752 3.487135,1.97556 1.880399,0.55841 5.200368,0.54861 6.908075,-0.0204 1.580929,-0.52677 4.03153,-2.01603 4.03153,-2.45 0,-0.16563 0.210182,-0.53339 0.467075,-0.81725 0.364986,-0.40331 0.885212,-0.51611 2.380197,-0.51611 l 1.861947,0.0905 1.833756,1.34557 c 3.282174,2.40839 4.697704,3.1065 8.273695,2.9925 2.00976,-0.0641 2.86403,-0.23083 4.09222,-0.7988 z m 26.52889,-65.28328 c 3.47171,-0.528207 4.41691,-0.877282 6.51762,-2.407056 1.86551,-1.358502 5.33571,-4.932827 5.33571,-5.495815 0,-0.405401 -2.46186,-1.655623 -4.15005,-2.107545 -1.35267,-0.362108 -3.66883,-0.0856 -7.1261,0.850739 -4.3651,1.1822 -8.11734,1.210366 -9.37701,0.07038 -0.78732,-0.712512 -0.68403,-2.490148 0.19581,-3.369987 1.09682,-1.096817 3.8656,-2.253039 8.03957,-3.357251 8.8595,-2.343759 10.90869,-4.444178 11.22005,-11.500555 0.0805,-1.823861 0.0519,-3.316111 -0.0635,-3.316111 -0.11538,0 -1.88264,0.951086 -3.92722,2.113525 -6.04477,3.436716 -9.02104,4.279793 -15.67677,4.440699 l -3.22629,0.078 -1.02989,-3.245555 c -1.20561,-3.799318 -2.0063,-5.45317 -3.75943,-7.765267 -2.9021,-3.827407 -5.77224,-4.922716 -11.92883,-4.552315 -4.74642,0.28556 -7.827088,1.598035 -10.357794,4.412788 -2.602671,2.894796 -3.865908,6.363544 -3.865908,10.61547 0,5.669627 2.946628,10.632719 7.273992,12.251794 3.61613,1.352968 9.44257,1.225564 13.19488,-0.288527 5.96225,-2.405814 7.12597,-2.802494 8.24724,-2.811249 1.92158,-0.01499 2.83684,1.307956 2.00767,2.90197 -0.38582,0.741725 -2.32122,3.055594 -4.5785,5.473858 -1.00636,1.078136 -1.59215,1.931664 -1.4966,2.180649 0.43073,1.122463 4.96936,3.99017 7.66576,4.843562 1.55156,0.491056 7.59071,0.48205 10.86556,-0.0162 z M 99.822422,73.143268 c -0.927997,-1.102862 -1.471574,-4.075057 -1.039046,-5.681345 0.795251,-2.953337 3.341724,-3.275643 6.433114,-0.814239 2.60135,2.071229 3.35966,4.384246 1.88529,5.750639 -0.84931,0.787118 -3.4932,1.5755 -5.28354,1.5755 -1.089,0 -1.409,-0.133169 -1.995818,-0.830555 z m -15.60217,0.941471 c 0.526128,-0.201893 0.591603,-1.263952 0.10775,-1.747805 -0.473823,-0.473823 -2.349937,-0.422258 -3.344237,0.09191 -0.457959,0.236818 -0.832652,0.487785 -0.832652,0.557702 0,0.06992 0.47625,0.378542 1.058334,0.685834 1.075249,0.567645 2.203461,0.722162 3.010805,0.412355 z"
         id="path103"
         sodipodi:nodetypes="cssscscsscsscccscsssscssscccccccccccccccccccsssscsscsssscsccsscsscccssscssssscccsssssscccsssscsssscccssssssssssssssssssssccssscccccssccccccccccccccccssscccssccccsscsssssscsssscccccccccssccssssscccsscccssssssscsssccccccccssccsccsscccsssssssssssssssscscccccccccccccscccccsscccssscsccssscccsscccccccccsscccccccsscscccccccsccccccssscscccccccsscsssssscssssssscssscssscsssssssscsssssssssssssssssscssssscssscssssssssscsscssssccsssssssssssssssscsssssssssssssssscssssssssssssssssssssssssssss" />
    </g>
  </g>
</svg>
